{"title":"The Brooklyn Banker 2016 Movies HDRip XviD Esubs New +Sample ☻rD","uid":15493890,"size":740047970,"categoryP":"video","categoryS":"movies","magnet":"?xt=urn:btih:0aa21c1f110ac771c08ec951139e3467109a9cfb&amp;dn=The+Brooklyn+Banker+2016+Movies+HDRip+XviD+Esubs+New+%2BSample+%E2%98%BBrD&amp;tr=udp%3A%2F%2Ftracker.leechers-paradise.org%3A6969&amp;tr=udp%3A%2F%2Fzer0day.ch%3A1337&amp;tr=udp%3A%2F%2Fopen.demonii.com%3A1337&amp;tr=udp%3A%2F%2Ftracker.coppersurfer.tk%3A6969&amp;tr=udp%3A%2F%2Fexodus.desync.com%3A6969","seeders":5,"leechers":3,"uploader":"basicssom","files":3,"time":1470409707,"description":"----------------------------------------------------------------\r\nThe Brooklyn Banker 2016 English Movies HDRip XviD Esubs AAC New Source with Sample ☻rDX☻\r\n\r\nSCREEN SHOTS &amp; POSTER:\r\n  \nhttp://postimage.co.nr/2016/8/domain/index.htm  \nhttp://postimage.co.nr/2016/8/domain/1.html  \nhttp://postimage.co.nr/2016/8/domain/2.html  \nhttp://postimage.co.nr/2016/8/domain/3.html  \nhttp://postimage.co.nr/2016/8/domain/4.html  \nhttp://postimage.co.nr/2016/8/domain/5.html  \nhttp://postimage.co.nr/2016/8/domain/6.html  \nhttp://postimage.co.nr/2016/8/domain/7.html  \nhttp://postimage.co.nr/2016/8/domain/8.html  \nhttp://postimage.co.nr/2016/8/domain/9.html  \nhttp://postimage.co.nr/2016/8/domain/10.html\r\n\r\nFormat                                   : Matroska\r\nFormat version                           : Version 4 / Version 2\r\nFile size                                : 693 MiB\r\nDuration                                 : 1 h 37 min\r\nOverall bit rate                         : 995 kb/s\r\nMovie name                               : The Brooklyn Banker 2016 English Movies HDRip XviD Esubs AAC New Source ☻rDX☻\r\n\r\nVideo\r\nID                                       : 1\r\nFormat                                   : MPEG-4 Visual\r\nFormat profile                           : Advanced   \r\nFormat settings, BVOP                    : 2\r\nFormat settings, QPel                    : No\r\nFormat settings, GMC                     : No warppoints\r\nFormat settings, Matrix                  : Default (H.263)\r\nMuxing mode                              : Packed bitstream\r\nCodec ID                                 : V_MS/VFW/FOURCC / XVID\r\nCodec ID/Hint                            : XviD\r\nDuration                                 : 1 h 37 min\r\nBit rate                                 : 847 kb/s\r\nWidth                                    : 640 pixels\r\nHeight                                   : 352 pixels\r\nDisplay aspect ratio                     : 16:9\r\nFrame rate mode                          : Constant\r\nFrame rate                               : 23.976 (24000/1001) FPS\r\nColor space                              : YUV\r\nChroma subsampling                       : 4:2:0\r\nBit depth                                : 8 bits\r\nScan type                                : Progressive\r\nCompression mode                         : Lossy\r\nBits/(Pixel*Frame)                       : 0.157\r\nStream size                              : 590 MiB (85%)\r\nTitle                                    : ☻rDX☻\r\nWriting library                          : XviD 64\r\nDefault                                  : Yes\r\nForced                                   : No\r\n\r\nAudio\r\nID                                       : 2\r\nFormat                                   : MPEG Audio\r\nFormat version                           : Version 1\r\nFormat profile                           : Layer 3\r\nMode                                     : Joint stereo\r\nMode extension                           : MS Stereo\r\nCodec ID                                 : A_MPEG/L3\r\nCodec ID/Hint                            : MP3\r\nDuration                                 : 1 h 37 min\r\nBit rate mode                            : Constant\r\nBit rate                                 : 128 kb/s\r\nChannel(s)                               : 2 channels\r\nSampling rate                            : 48.0 kHz\r\nCompression mode                         : Lossy\r\nStream size                              : 89.6 MiB (13%)\r\nTitle                                    : ☻rDX☻\r\nWriting library                          : LAME3.99r\r\nEncoding settings                        : -m j -V 4 -q 3 -lowpass 17 -b 128\r\nDefault                                  : Yes\r\nForced                                   : No\r\n\r\nIMDB \nhttp://www.imdb.com/title/tt3758564/","torrent":{"xt":"urn:btih:0aa21c1f110ac771c08ec951139e3467109a9cfb","amp;dn":"The+Brooklyn+Banker+2016+Movies+HDRip+XviD+Esubs+New+%2BSample+%E2%98%BBrD","amp;tr":["udp%3A%2F%2Ftracker.leechers-paradise.org%3A6969","udp%3A%2F%2Fzer0day.ch%3A1337","udp%3A%2F%2Fopen.demonii.com%3A1337","udp%3A%2F%2Ftracker.coppersurfer.tk%3A6969","udp%3A%2F%2Fexodus.desync.com%3A6969"],"infoHash":"0aa21c1f110ac771c08ec951139e3467109a9cfb","infoHashBuffer":{"type":"Buffer","data":[10,162,28,31,17,10,199,113,192,142,201,81,19,158,52,103,16,154,156,251]},"announce":[],"urlList":[]}}